%TF.GenerationSoftware,KiCad,Pcbnew,5.1.10*%
%TF.CreationDate,2021-07-02T09:56:20+02:00*%
%TF.ProjectId,breakout_boards,62726561-6b6f-4757-945f-626f61726473,rev?*%
%TF.SameCoordinates,Original*%
%TF.FileFunction,Copper,L1,Top*%
%TF.FilePolarity,Positive*%
%FSLAX46Y46*%
G04 Gerber Fmt 4.6, Leading zero omitted, Abs format (unit mm)*
G04 Created by KiCad (PCBNEW 5.1.10) date 2021-07-02 09:56:20*
%MOMM*%
%LPD*%
G01*
G04 APERTURE LIST*
%TA.AperFunction,ComponentPad*%
%ADD10O,1.950000X1.700000*%
%TD*%
%TA.AperFunction,ComponentPad*%
%ADD11O,3.600000X2.000000*%
%TD*%
%TA.AperFunction,ComponentPad*%
%ADD12O,2.000000X1.700000*%
%TD*%
%TA.AperFunction,ComponentPad*%
%ADD13C,1.700000*%
%TD*%
%TA.AperFunction,Conductor*%
%ADD14C,2.000000*%
%TD*%
%TA.AperFunction,Conductor*%
%ADD15C,7.500000*%
%TD*%
%TA.AperFunction,Conductor*%
%ADD16C,1.000000*%
%TD*%
%TA.AperFunction,Conductor*%
%ADD17C,0.250000*%
%TD*%
G04 APERTURE END LIST*
D10*
%TO.P,J15,5*%
%TO.N,GND*%
X163000000Y-92000000D03*
%TO.P,J15,4*%
%TO.N,+5V*%
X163000000Y-89500000D03*
%TO.P,J15,3*%
%TO.N,BLT_PWM*%
X163000000Y-87000000D03*
%TO.P,J15,2*%
%TO.N,GND*%
X163000000Y-84500000D03*
%TO.P,J15,1*%
%TO.N,BLT_TRIGGER*%
%TA.AperFunction,ComponentPad*%
G36*
G01*
X162275000Y-81150000D02*
X163725000Y-81150000D01*
G75*
G02*
X163975000Y-81400000I0J-250000D01*
G01*
X163975000Y-82600000D01*
G75*
G02*
X163725000Y-82850000I-250000J0D01*
G01*
X162275000Y-82850000D01*
G75*
G02*
X162025000Y-82600000I0J250000D01*
G01*
X162025000Y-81400000D01*
G75*
G02*
X162275000Y-81150000I250000J0D01*
G01*
G37*
%TD.AperFunction*%
%TD*%
D11*
%TO.P,J18,3*%
%TO.N,+5V*%
X140000000Y-54000000D03*
%TO.P,J18,2*%
%TO.N,VCC*%
X140000000Y-49000000D03*
%TO.P,J18,1*%
%TO.N,GND*%
%TA.AperFunction,ComponentPad*%
G36*
G01*
X138450000Y-43000000D02*
X141550000Y-43000000D01*
G75*
G02*
X141800000Y-43250000I0J-250000D01*
G01*
X141800000Y-44750000D01*
G75*
G02*
X141550000Y-45000000I-250000J0D01*
G01*
X138450000Y-45000000D01*
G75*
G02*
X138200000Y-44750000I0J250000D01*
G01*
X138200000Y-43250000D01*
G75*
G02*
X138450000Y-43000000I250000J0D01*
G01*
G37*
%TD.AperFunction*%
%TD*%
%TO.P,J10,3*%
%TO.N,GND*%
X140000000Y-72000000D03*
%TO.P,J10,2*%
%TO.N,NeoPixel*%
X140000000Y-67000000D03*
%TO.P,J10,1*%
%TO.N,+5V*%
%TA.AperFunction,ComponentPad*%
G36*
G01*
X138450000Y-61000000D02*
X141550000Y-61000000D01*
G75*
G02*
X141800000Y-61250000I0J-250000D01*
G01*
X141800000Y-62750000D01*
G75*
G02*
X141550000Y-63000000I-250000J0D01*
G01*
X138450000Y-63000000D01*
G75*
G02*
X138200000Y-62750000I0J250000D01*
G01*
X138200000Y-61250000D01*
G75*
G02*
X138450000Y-61000000I250000J0D01*
G01*
G37*
%TD.AperFunction*%
%TD*%
%TO.P,J3,2*%
%TO.N,+5V*%
X176000000Y-57000000D03*
%TO.P,J3,1*%
%TO.N,GND*%
%TA.AperFunction,ComponentPad*%
G36*
G01*
X177550000Y-63000000D02*
X174450000Y-63000000D01*
G75*
G02*
X174200000Y-62750000I0J250000D01*
G01*
X174200000Y-61250000D01*
G75*
G02*
X174450000Y-61000000I250000J0D01*
G01*
X177550000Y-61000000D01*
G75*
G02*
X177800000Y-61250000I0J-250000D01*
G01*
X177800000Y-62750000D01*
G75*
G02*
X177550000Y-63000000I-250000J0D01*
G01*
G37*
%TD.AperFunction*%
%TD*%
%TO.P,J1,2*%
%TO.N,VCC*%
X176000000Y-44000000D03*
%TO.P,J1,1*%
%TO.N,GND*%
%TA.AperFunction,ComponentPad*%
G36*
G01*
X177550000Y-50000000D02*
X174450000Y-50000000D01*
G75*
G02*
X174200000Y-49750000I0J250000D01*
G01*
X174200000Y-48250000D01*
G75*
G02*
X174450000Y-48000000I250000J0D01*
G01*
X177550000Y-48000000D01*
G75*
G02*
X177800000Y-48250000I0J-250000D01*
G01*
X177800000Y-49750000D01*
G75*
G02*
X177550000Y-50000000I-250000J0D01*
G01*
G37*
%TD.AperFunction*%
%TD*%
D10*
%TO.P,J2,4*%
%TO.N,XM_4*%
X148000000Y-135500000D03*
%TO.P,J2,3*%
%TO.N,XM_3*%
X148000000Y-133000000D03*
%TO.P,J2,2*%
%TO.N,XM_2*%
X148000000Y-130500000D03*
%TO.P,J2,1*%
%TO.N,XM_1*%
%TA.AperFunction,ComponentPad*%
G36*
G01*
X147275000Y-127150000D02*
X148725000Y-127150000D01*
G75*
G02*
X148975000Y-127400000I0J-250000D01*
G01*
X148975000Y-128600000D01*
G75*
G02*
X148725000Y-128850000I-250000J0D01*
G01*
X147275000Y-128850000D01*
G75*
G02*
X147025000Y-128600000I0J250000D01*
G01*
X147025000Y-127400000D01*
G75*
G02*
X147275000Y-127150000I250000J0D01*
G01*
G37*
%TD.AperFunction*%
%TD*%
%TO.P,J6,4*%
%TO.N,YM_4*%
X148000000Y-121500000D03*
%TO.P,J6,3*%
%TO.N,YM_3*%
X148000000Y-119000000D03*
%TO.P,J6,2*%
%TO.N,YM_2*%
X148000000Y-116500000D03*
%TO.P,J6,1*%
%TO.N,YM_1*%
%TA.AperFunction,ComponentPad*%
G36*
G01*
X147275000Y-113150000D02*
X148725000Y-113150000D01*
G75*
G02*
X148975000Y-113400000I0J-250000D01*
G01*
X148975000Y-114600000D01*
G75*
G02*
X148725000Y-114850000I-250000J0D01*
G01*
X147275000Y-114850000D01*
G75*
G02*
X147025000Y-114600000I0J250000D01*
G01*
X147025000Y-113400000D01*
G75*
G02*
X147275000Y-113150000I250000J0D01*
G01*
G37*
%TD.AperFunction*%
%TD*%
%TO.P,J8,4*%
%TO.N,ZM1_4*%
X148000000Y-107500000D03*
%TO.P,J8,3*%
%TO.N,ZM1_3*%
X148000000Y-105000000D03*
%TO.P,J8,2*%
%TO.N,ZM1_2*%
X148000000Y-102500000D03*
%TO.P,J8,1*%
%TO.N,ZM1_1*%
%TA.AperFunction,ComponentPad*%
G36*
G01*
X147275000Y-99150000D02*
X148725000Y-99150000D01*
G75*
G02*
X148975000Y-99400000I0J-250000D01*
G01*
X148975000Y-100600000D01*
G75*
G02*
X148725000Y-100850000I-250000J0D01*
G01*
X147275000Y-100850000D01*
G75*
G02*
X147025000Y-100600000I0J250000D01*
G01*
X147025000Y-99400000D01*
G75*
G02*
X147275000Y-99150000I250000J0D01*
G01*
G37*
%TD.AperFunction*%
%TD*%
%TO.P,J19,4*%
%TO.N,ZM2_4*%
X148000000Y-93500000D03*
%TO.P,J19,3*%
%TO.N,ZM2_3*%
X148000000Y-91000000D03*
%TO.P,J19,2*%
%TO.N,ZM2_2*%
X148000000Y-88500000D03*
%TO.P,J19,1*%
%TO.N,ZM2_1*%
%TA.AperFunction,ComponentPad*%
G36*
G01*
X147275000Y-85150000D02*
X148725000Y-85150000D01*
G75*
G02*
X148975000Y-85400000I0J-250000D01*
G01*
X148975000Y-86600000D01*
G75*
G02*
X148725000Y-86850000I-250000J0D01*
G01*
X147275000Y-86850000D01*
G75*
G02*
X147025000Y-86600000I0J250000D01*
G01*
X147025000Y-85400000D01*
G75*
G02*
X147275000Y-85150000I250000J0D01*
G01*
G37*
%TD.AperFunction*%
%TD*%
%TO.P,J13,4*%
%TO.N,EM_4*%
X148000000Y-79500000D03*
%TO.P,J13,3*%
%TO.N,EM_3*%
X148000000Y-77000000D03*
%TO.P,J13,2*%
%TO.N,EM_2*%
X148000000Y-74500000D03*
%TO.P,J13,1*%
%TO.N,EM_1*%
%TA.AperFunction,ComponentPad*%
G36*
G01*
X147275000Y-71150000D02*
X148725000Y-71150000D01*
G75*
G02*
X148975000Y-71400000I0J-250000D01*
G01*
X148975000Y-72600000D01*
G75*
G02*
X148725000Y-72850000I-250000J0D01*
G01*
X147275000Y-72850000D01*
G75*
G02*
X147025000Y-72600000I0J250000D01*
G01*
X147025000Y-71400000D01*
G75*
G02*
X147275000Y-71150000I250000J0D01*
G01*
G37*
%TD.AperFunction*%
%TD*%
D12*
%TO.P,J5,2*%
%TO.N,FAN*%
X163000000Y-75000000D03*
%TO.P,J5,1*%
%TO.N,VCC*%
%TA.AperFunction,ComponentPad*%
G36*
G01*
X162250000Y-71650000D02*
X163750000Y-71650000D01*
G75*
G02*
X164000000Y-71900000I0J-250000D01*
G01*
X164000000Y-73100000D01*
G75*
G02*
X163750000Y-73350000I-250000J0D01*
G01*
X162250000Y-73350000D01*
G75*
G02*
X162000000Y-73100000I0J250000D01*
G01*
X162000000Y-71900000D01*
G75*
G02*
X162250000Y-71650000I250000J0D01*
G01*
G37*
%TD.AperFunction*%
%TD*%
D10*
%TO.P,J11,3*%
%TO.N,+5V*%
X163000000Y-104000000D03*
%TO.P,J11,2*%
%TO.N,GND*%
X163000000Y-101500000D03*
%TO.P,J11,1*%
%TO.N,E0-STOP*%
%TA.AperFunction,ComponentPad*%
G36*
G01*
X162275000Y-98150000D02*
X163725000Y-98150000D01*
G75*
G02*
X163975000Y-98400000I0J-250000D01*
G01*
X163975000Y-99600000D01*
G75*
G02*
X163725000Y-99850000I-250000J0D01*
G01*
X162275000Y-99850000D01*
G75*
G02*
X162025000Y-99600000I0J250000D01*
G01*
X162025000Y-98400000D01*
G75*
G02*
X162275000Y-98150000I250000J0D01*
G01*
G37*
%TD.AperFunction*%
%TD*%
D12*
%TO.P,J12,2*%
%TO.N,Z-STOP*%
X163000000Y-113500000D03*
%TO.P,J12,1*%
%TO.N,GND*%
%TA.AperFunction,ComponentPad*%
G36*
G01*
X162250000Y-110150000D02*
X163750000Y-110150000D01*
G75*
G02*
X164000000Y-110400000I0J-250000D01*
G01*
X164000000Y-111600000D01*
G75*
G02*
X163750000Y-111850000I-250000J0D01*
G01*
X162250000Y-111850000D01*
G75*
G02*
X162000000Y-111600000I0J250000D01*
G01*
X162000000Y-110400000D01*
G75*
G02*
X162250000Y-110150000I250000J0D01*
G01*
G37*
%TD.AperFunction*%
%TD*%
%TO.P,J7,2*%
%TO.N,X-STOP*%
X163000000Y-132500000D03*
%TO.P,J7,1*%
%TO.N,GND*%
%TA.AperFunction,ComponentPad*%
G36*
G01*
X162250000Y-129150000D02*
X163750000Y-129150000D01*
G75*
G02*
X164000000Y-129400000I0J-250000D01*
G01*
X164000000Y-130600000D01*
G75*
G02*
X163750000Y-130850000I-250000J0D01*
G01*
X162250000Y-130850000D01*
G75*
G02*
X162000000Y-130600000I0J250000D01*
G01*
X162000000Y-129400000D01*
G75*
G02*
X162250000Y-129150000I250000J0D01*
G01*
G37*
%TD.AperFunction*%
%TD*%
%TO.P,J9,2*%
%TO.N,Y-STOP*%
X163000000Y-123000000D03*
%TO.P,J9,1*%
%TO.N,GND*%
%TA.AperFunction,ComponentPad*%
G36*
G01*
X162250000Y-119650000D02*
X163750000Y-119650000D01*
G75*
G02*
X164000000Y-119900000I0J-250000D01*
G01*
X164000000Y-121100000D01*
G75*
G02*
X163750000Y-121350000I-250000J0D01*
G01*
X162250000Y-121350000D01*
G75*
G02*
X162000000Y-121100000I0J250000D01*
G01*
X162000000Y-119900000D01*
G75*
G02*
X162250000Y-119650000I250000J0D01*
G01*
G37*
%TD.AperFunction*%
%TD*%
D13*
%TO.P,J4,10*%
%TO.N,+5V*%
X181540000Y-124660000D03*
%TO.P,J4,8*%
%TO.N,EXP8*%
X181540000Y-122120000D03*
%TO.P,J4,6*%
%TO.N,EXP6*%
X181540000Y-119580000D03*
%TO.P,J4,4*%
%TO.N,EXP4*%
X181540000Y-117040000D03*
%TO.P,J4,2*%
%TO.N,EXP2*%
X181540000Y-114500000D03*
%TO.P,J4,9*%
%TO.N,GND*%
X179000000Y-124660000D03*
%TO.P,J4,7*%
%TO.N,EXP7*%
X179000000Y-122120000D03*
%TO.P,J4,5*%
%TO.N,EXP5*%
X179000000Y-119580000D03*
%TO.P,J4,3*%
%TO.N,EXP3*%
X179000000Y-117040000D03*
%TO.P,J4,1*%
%TO.N,EXP1*%
%TA.AperFunction,ComponentPad*%
G36*
G01*
X178150000Y-115100000D02*
X178150000Y-113900000D01*
G75*
G02*
X178400000Y-113650000I250000J0D01*
G01*
X179600000Y-113650000D01*
G75*
G02*
X179850000Y-113900000I0J-250000D01*
G01*
X179850000Y-115100000D01*
G75*
G02*
X179600000Y-115350000I-250000J0D01*
G01*
X178400000Y-115350000D01*
G75*
G02*
X178150000Y-115100000I0J250000D01*
G01*
G37*
%TD.AperFunction*%
%TD*%
D12*
%TO.P,J20,2*%
%TO.N,VCC*%
X183000000Y-86500000D03*
%TO.P,J20,1*%
%TO.N,BED*%
%TA.AperFunction,ComponentPad*%
G36*
G01*
X182250000Y-83150000D02*
X183750000Y-83150000D01*
G75*
G02*
X184000000Y-83400000I0J-250000D01*
G01*
X184000000Y-84600000D01*
G75*
G02*
X183750000Y-84850000I-250000J0D01*
G01*
X182250000Y-84850000D01*
G75*
G02*
X182000000Y-84600000I0J250000D01*
G01*
X182000000Y-83400000D01*
G75*
G02*
X182250000Y-83150000I250000J0D01*
G01*
G37*
%TD.AperFunction*%
%TD*%
%TO.P,J21,2*%
%TO.N,VCC*%
X183000000Y-77000000D03*
%TO.P,J21,1*%
%TO.N,HEO*%
%TA.AperFunction,ComponentPad*%
G36*
G01*
X182250000Y-73650000D02*
X183750000Y-73650000D01*
G75*
G02*
X184000000Y-73900000I0J-250000D01*
G01*
X184000000Y-75100000D01*
G75*
G02*
X183750000Y-75350000I-250000J0D01*
G01*
X182250000Y-75350000D01*
G75*
G02*
X182000000Y-75100000I0J250000D01*
G01*
X182000000Y-73900000D01*
G75*
G02*
X182250000Y-73650000I250000J0D01*
G01*
G37*
%TD.AperFunction*%
%TD*%
%TO.P,J14,2*%
%TO.N,THO*%
X183000000Y-96000000D03*
%TO.P,J14,1*%
%TO.N,GND*%
%TA.AperFunction,ComponentPad*%
G36*
G01*
X182250000Y-92650000D02*
X183750000Y-92650000D01*
G75*
G02*
X184000000Y-92900000I0J-250000D01*
G01*
X184000000Y-94100000D01*
G75*
G02*
X183750000Y-94350000I-250000J0D01*
G01*
X182250000Y-94350000D01*
G75*
G02*
X182000000Y-94100000I0J250000D01*
G01*
X182000000Y-92900000D01*
G75*
G02*
X182250000Y-92650000I250000J0D01*
G01*
G37*
%TD.AperFunction*%
%TD*%
%TO.P,J16,2*%
%TO.N,THB*%
X183000000Y-105500000D03*
%TO.P,J16,1*%
%TO.N,GND*%
%TA.AperFunction,ComponentPad*%
G36*
G01*
X182250000Y-102150000D02*
X183750000Y-102150000D01*
G75*
G02*
X184000000Y-102400000I0J-250000D01*
G01*
X184000000Y-103600000D01*
G75*
G02*
X183750000Y-103850000I-250000J0D01*
G01*
X182250000Y-103850000D01*
G75*
G02*
X182000000Y-103600000I0J250000D01*
G01*
X182000000Y-102400000D01*
G75*
G02*
X182250000Y-102150000I250000J0D01*
G01*
G37*
%TD.AperFunction*%
%TD*%
D13*
%TO.P,J17,40*%
%TO.N,FAN*%
X135960000Y-82240000D03*
%TO.P,J17,38*%
%TO.N,BLT_TRIGGER*%
X135960000Y-84780000D03*
%TO.P,J17,36*%
%TO.N,BLT_PWM*%
X135960000Y-87320000D03*
%TO.P,J17,34*%
%TO.N,HEO*%
X135960000Y-89860000D03*
%TO.P,J17,32*%
%TO.N,BED*%
X135960000Y-92400000D03*
%TO.P,J17,30*%
%TO.N,E0-STOP*%
X135960000Y-94940000D03*
%TO.P,J17,28*%
%TO.N,Z-STOP*%
X135960000Y-97480000D03*
%TO.P,J17,26*%
%TO.N,Y-STOP*%
X135960000Y-100020000D03*
%TO.P,J17,24*%
%TO.N,X-STOP*%
X135960000Y-102560000D03*
%TO.P,J17,22*%
%TO.N,NeoPixel*%
X135960000Y-105100000D03*
%TO.P,J17,20*%
%TO.N,THO*%
X135960000Y-107640000D03*
%TO.P,J17,18*%
%TO.N,THB*%
X135960000Y-110180000D03*
%TO.P,J17,16*%
%TO.N,EXP1*%
X135960000Y-112720000D03*
%TO.P,J17,14*%
%TO.N,EXP2*%
X135960000Y-115260000D03*
%TO.P,J17,12*%
%TO.N,EXP3*%
X135960000Y-117800000D03*
%TO.P,J17,10*%
%TO.N,EXP4*%
X135960000Y-120340000D03*
%TO.P,J17,8*%
%TO.N,EXP5*%
X135960000Y-122880000D03*
%TO.P,J17,6*%
%TO.N,EXP6*%
X135960000Y-125420000D03*
%TO.P,J17,4*%
%TO.N,EXP7*%
X135960000Y-127960000D03*
%TO.P,J17,2*%
%TO.N,EXP8*%
X135960000Y-130500000D03*
%TO.P,J17,39*%
%TO.N,EM_1*%
X138500000Y-82240000D03*
%TO.P,J17,37*%
%TO.N,EM_2*%
X138500000Y-84780000D03*
%TO.P,J17,35*%
%TO.N,EM_3*%
X138500000Y-87320000D03*
%TO.P,J17,33*%
%TO.N,EM_4*%
X138500000Y-89860000D03*
%TO.P,J17,31*%
%TO.N,ZM2_1*%
X138500000Y-92400000D03*
%TO.P,J17,29*%
%TO.N,ZM2_2*%
X138500000Y-94940000D03*
%TO.P,J17,27*%
%TO.N,ZM2_3*%
X138500000Y-97480000D03*
%TO.P,J17,25*%
%TO.N,ZM2_4*%
X138500000Y-100020000D03*
%TO.P,J17,23*%
%TO.N,ZM1_1*%
X138500000Y-102560000D03*
%TO.P,J17,21*%
%TO.N,ZM1_2*%
X138500000Y-105100000D03*
%TO.P,J17,19*%
%TO.N,ZM1_3*%
X138500000Y-107640000D03*
%TO.P,J17,17*%
%TO.N,ZM1_4*%
X138500000Y-110180000D03*
%TO.P,J17,15*%
%TO.N,YM_1*%
X138500000Y-112720000D03*
%TO.P,J17,13*%
%TO.N,YM_2*%
X138500000Y-115260000D03*
%TO.P,J17,11*%
%TO.N,YM_3*%
X138500000Y-117800000D03*
%TO.P,J17,9*%
%TO.N,YM_4*%
X138500000Y-120340000D03*
%TO.P,J17,7*%
%TO.N,XM_1*%
X138500000Y-122880000D03*
%TO.P,J17,5*%
%TO.N,XM_2*%
X138500000Y-125420000D03*
%TO.P,J17,3*%
%TO.N,XM_3*%
X138500000Y-127960000D03*
%TO.P,J17,1*%
%TO.N,XM_4*%
%TA.AperFunction,ComponentPad*%
G36*
G01*
X139350000Y-129900000D02*
X139350000Y-131100000D01*
G75*
G02*
X139100000Y-131350000I-250000J0D01*
G01*
X137900000Y-131350000D01*
G75*
G02*
X137650000Y-131100000I0J250000D01*
G01*
X137650000Y-129900000D01*
G75*
G02*
X137900000Y-129650000I250000J0D01*
G01*
X139100000Y-129650000D01*
G75*
G02*
X139350000Y-129900000I0J-250000D01*
G01*
G37*
%TD.AperFunction*%
%TD*%
D14*
%TO.N,GND*%
X184000000Y-93500000D02*
X183000000Y-93500000D01*
X185200010Y-94700010D02*
X184000000Y-93500000D01*
X185200010Y-100799990D02*
X185200010Y-94700010D01*
X183000000Y-103000000D02*
X185200010Y-100799990D01*
X181500000Y-92000000D02*
X183000000Y-93500000D01*
X163000000Y-92000000D02*
X181500000Y-92000000D01*
X165175010Y-94175010D02*
X163000000Y-92000000D01*
X165175010Y-100200616D02*
X165175010Y-94175010D01*
X163875626Y-101500000D02*
X165175010Y-100200616D01*
X163000000Y-101500000D02*
X163875626Y-101500000D01*
X165200010Y-122150859D02*
X163549151Y-120500000D01*
X165200010Y-127799990D02*
X165200010Y-122150859D01*
X163000000Y-130000000D02*
X165200010Y-127799990D01*
X164000000Y-111000000D02*
X163000000Y-111000000D01*
X165200010Y-112200010D02*
X164000000Y-111000000D01*
X165200010Y-118299990D02*
X165200010Y-112200010D01*
X163000000Y-120500000D02*
X165200010Y-118299990D01*
X163549151Y-120500000D02*
X163000000Y-120500000D01*
X167709151Y-124660000D02*
X163549151Y-120500000D01*
X179000000Y-124660000D02*
X167709151Y-124660000D01*
D15*
%TO.N,VCC*%
X172760286Y-44000000D02*
X176000000Y-44000000D01*
X167710285Y-49050001D02*
X172760286Y-44000000D01*
X155835999Y-49050001D02*
X167710285Y-49050001D01*
X155785998Y-49000000D02*
X155835999Y-49050001D01*
X140000000Y-49000000D02*
X155785998Y-49000000D01*
D14*
X163000000Y-53760286D02*
X167710285Y-49050001D01*
X163000000Y-72500000D02*
X163000000Y-53760286D01*
X182099374Y-77000000D02*
X183000000Y-77000000D01*
X177599374Y-72500000D02*
X182099374Y-77000000D01*
X163000000Y-72500000D02*
X177599374Y-72500000D01*
X185200010Y-79200010D02*
X183000000Y-77000000D01*
X185200010Y-85200616D02*
X185200010Y-79200010D01*
X183900626Y-86500000D02*
X185200010Y-85200616D01*
X183000000Y-86500000D02*
X183900626Y-86500000D01*
D16*
%TO.N,XM_4*%
X142650000Y-135500000D02*
X148000000Y-135500000D01*
X138500000Y-131350000D02*
X142650000Y-135500000D01*
X138500000Y-130500000D02*
X138500000Y-131350000D01*
%TO.N,XM_3*%
X139342930Y-127960000D02*
X144382930Y-133000000D01*
X144382930Y-133000000D02*
X148000000Y-133000000D01*
X138500000Y-127960000D02*
X139342930Y-127960000D01*
%TO.N,XM_2*%
X143580000Y-130500000D02*
X148000000Y-130500000D01*
X138500000Y-125420000D02*
X143580000Y-130500000D01*
%TO.N,XM_1*%
X142880000Y-122880000D02*
X148000000Y-128000000D01*
X138500000Y-122880000D02*
X142880000Y-122880000D01*
D14*
%TO.N,+5V*%
X163000000Y-104000000D02*
X176000000Y-104000000D01*
X176000000Y-104000000D02*
X185500000Y-113500000D01*
X182742081Y-124660000D02*
X181540000Y-124660000D01*
X185500000Y-121902081D02*
X182742081Y-124660000D01*
X185500000Y-113500000D02*
X185500000Y-121902081D01*
X162388717Y-104000000D02*
X159000000Y-100611283D01*
X163000000Y-104000000D02*
X162388717Y-104000000D01*
X159000000Y-100611283D02*
X159000000Y-92500000D01*
X162000000Y-89500000D02*
X163000000Y-89500000D01*
X159000000Y-92500000D02*
X162000000Y-89500000D01*
X160824990Y-81449364D02*
X141375626Y-62000000D01*
X160824990Y-87849141D02*
X160824990Y-81449364D01*
X141375626Y-62000000D02*
X140000000Y-62000000D01*
X162475849Y-89500000D02*
X160824990Y-87849141D01*
X163000000Y-89500000D02*
X162475849Y-89500000D01*
D16*
%TO.N,YM_4*%
X146840000Y-120340000D02*
X148000000Y-121500000D01*
X138500000Y-120340000D02*
X146840000Y-120340000D01*
%TO.N,YM_3*%
X146800000Y-117800000D02*
X148000000Y-119000000D01*
X138500000Y-117800000D02*
X146800000Y-117800000D01*
%TO.N,YM_2*%
X139740000Y-116500000D02*
X148000000Y-116500000D01*
X138500000Y-115260000D02*
X139740000Y-116500000D01*
%TO.N,YM_1*%
X146720000Y-112720000D02*
X148000000Y-114000000D01*
X138500000Y-112720000D02*
X146720000Y-112720000D01*
D17*
%TO.N,X-STOP*%
X149300010Y-113161820D02*
X147638190Y-111500000D01*
X149300010Y-120050010D02*
X149300010Y-113161820D01*
X161750000Y-132500000D02*
X149300010Y-120050010D01*
X163000000Y-132500000D02*
X161750000Y-132500000D01*
X135540998Y-111500000D02*
X133040998Y-109000000D01*
X147638190Y-111500000D02*
X135540998Y-111500000D01*
X135960000Y-103360998D02*
X135960000Y-102560000D01*
X133040998Y-106280000D02*
X135960000Y-103360998D01*
X133040998Y-109000000D02*
X133040998Y-106280000D01*
%TO.N,Y-STOP*%
X152000000Y-112000000D02*
X163000000Y-123000000D01*
X152000000Y-101861810D02*
X152000000Y-112000000D01*
X141471739Y-101195001D02*
X145166740Y-97500000D01*
X137135001Y-101195001D02*
X141471739Y-101195001D01*
X135960000Y-100020000D02*
X137135001Y-101195001D01*
X147638190Y-97500000D02*
X152000000Y-101861810D01*
X145166740Y-97500000D02*
X147638190Y-97500000D01*
D16*
%TO.N,EM_4*%
X139490000Y-89860000D02*
X138500000Y-89860000D01*
X148000000Y-81350000D02*
X139490000Y-89860000D01*
X148000000Y-79500000D02*
X148000000Y-81350000D01*
%TO.N,EM_3*%
X140050001Y-85769999D02*
X138500000Y-87320000D01*
X140050001Y-85132954D02*
X140050001Y-85769999D01*
X148000000Y-77182955D02*
X140050001Y-85132954D01*
X148000000Y-77000000D02*
X148000000Y-77182955D01*
%TO.N,EM_2*%
X140050001Y-82449999D02*
X148000000Y-74500000D01*
X140050001Y-83229999D02*
X140050001Y-82449999D01*
X138500000Y-84780000D02*
X140050001Y-83229999D01*
%TO.N,EM_1*%
X138500000Y-81500000D02*
X138500000Y-82240000D01*
X148000000Y-72000000D02*
X138500000Y-81500000D01*
%TO.N,ZM1_4*%
X141180000Y-107500000D02*
X138500000Y-110180000D01*
X148000000Y-107500000D02*
X141180000Y-107500000D01*
%TO.N,ZM1_3*%
X141140000Y-105000000D02*
X138500000Y-107640000D01*
X148000000Y-105000000D02*
X141140000Y-105000000D01*
%TO.N,ZM1_2*%
X138500000Y-105100000D02*
X140100000Y-103500000D01*
X148000000Y-102682955D02*
X148000000Y-102500000D01*
X147182955Y-103500000D02*
X148000000Y-102682955D01*
X140100000Y-103500000D02*
X147182955Y-103500000D01*
%TO.N,ZM1_1*%
X145979989Y-102020011D02*
X148000000Y-100000000D01*
X138979989Y-102020011D02*
X145979989Y-102020011D01*
X138500000Y-102500000D02*
X138979989Y-102020011D01*
X138500000Y-102560000D02*
X138500000Y-102500000D01*
%TO.N,ZM2_4*%
X141480000Y-100020000D02*
X138500000Y-100020000D01*
X148000000Y-93500000D02*
X141480000Y-100020000D01*
%TO.N,ZM2_3*%
X141520000Y-97480000D02*
X138500000Y-97480000D01*
X148000000Y-91000000D02*
X141520000Y-97480000D01*
%TO.N,ZM2_2*%
X141560000Y-94940000D02*
X148000000Y-88500000D01*
X138500000Y-94940000D02*
X141560000Y-94940000D01*
%TO.N,ZM2_1*%
X141600000Y-92400000D02*
X138500000Y-92400000D01*
X148000000Y-86000000D02*
X141600000Y-92400000D01*
%TD*%
M02*
