M48
; DRILL file {KiCad 5.1.10} date Fri Jul  2 09:56:27 2021
; FORMAT={-:-/ absolute / inch / decimal}
; #@! TF.CreationDate,2021-07-02T09:56:27+02:00
; #@! TF.GenerationSoftware,Kicad,Pcbnew,5.1.10
; #@! TF.FileFunction,Plated,1,2,PTH
FMAT,2
INCH
T1C0.0374
T2C0.0394
T3C0.0551
%
G90
G05
T1
X5.8268Y-2.8346
X5.8268Y-2.9331
X5.8268Y-3.0315
X5.8268Y-3.1299
X5.8268Y-3.3858
X5.8268Y-3.4843
X5.8268Y-3.5827
X5.8268Y-3.6811
X5.8268Y-3.937
X5.8268Y-4.0354
X5.8268Y-4.1339
X5.8268Y-4.2323
X5.8268Y-4.4882
X5.8268Y-4.5866
X5.8268Y-4.685
X5.8268Y-4.7835
X5.8268Y-5.0394
X5.8268Y-5.1378
X5.8268Y-5.2362
X5.8268Y-5.3346
X6.4173Y-3.2283
X6.4173Y-3.3268
X6.4173Y-3.4252
X6.4173Y-3.5236
X6.4173Y-3.622
X6.4173Y-3.8976
X6.4173Y-3.9961
X6.4173Y-4.0945
T2
X5.3528Y-3.2378
X5.3528Y-3.3378
X5.3528Y-3.4378
X5.3528Y-3.5378
X5.3528Y-3.6378
X5.3528Y-3.7378
X5.3528Y-3.8378
X5.3528Y-3.9378
X5.3528Y-4.0378
X5.3528Y-4.1378
X5.3528Y-4.2378
X5.3528Y-4.3378
X5.3528Y-4.4378
X5.3528Y-4.5378
X5.3528Y-4.6378
X5.3528Y-4.7378
X5.3528Y-4.8378
X5.3528Y-4.9378
X5.3528Y-5.0378
X5.3528Y-5.1378
X5.4528Y-3.2378
X5.4528Y-3.3378
X5.4528Y-3.4378
X5.4528Y-3.5378
X5.4528Y-3.6378
X5.4528Y-3.7378
X5.4528Y-3.8378
X5.4528Y-3.9378
X5.4528Y-4.0378
X5.4528Y-4.1378
X5.4528Y-4.2378
X5.4528Y-4.3378
X5.4528Y-4.4378
X5.4528Y-4.5378
X5.4528Y-4.6378
X5.4528Y-4.7378
X5.4528Y-4.8378
X5.4528Y-4.9378
X5.4528Y-5.0378
X5.4528Y-5.1378
X6.4173Y-2.8543
X6.4173Y-2.9528
X6.4173Y-4.3701
X6.4173Y-4.4685
X6.4173Y-4.7441
X6.4173Y-4.8425
X6.4173Y-5.1181
X6.4173Y-5.2165
X7.0472Y-4.5079
X7.0472Y-4.6079
X7.0472Y-4.7079
X7.0472Y-4.8079
X7.0472Y-4.9079
X7.1472Y-4.5079
X7.1472Y-4.6079
X7.1472Y-4.7079
X7.1472Y-4.8079
X7.1472Y-4.9079
X7.2047Y-2.9331
X7.2047Y-3.0315
X7.2047Y-3.3071
X7.2047Y-3.4055
X7.2047Y-3.6811
X7.2047Y-3.7795
X7.2047Y-4.0551
X7.2047Y-4.1535
T3
X5.5118Y-1.7323
X5.5118Y-1.9291
X5.5118Y-2.126
X5.5118Y-2.4409
X5.5118Y-2.6378
X5.5118Y-2.8346
X6.9291Y-1.7323
X6.9291Y-1.9291
X6.9291Y-2.2441
X6.9291Y-2.4409
T0
M30
